<?xml version="1.0" standalone="no"?>
<!DOCTYPE svg PUBLIC "-//W3C//DTD SVG 20010904//EN"
 "http://www.w3.org/TR/2001/REC-SVG-20010904/DTD/svg10.dtd">
<svg version="1.0" xmlns="http://www.w3.org/2000/svg"
 width="260.000000pt" height="260.000000pt" viewBox="0 0 260.000000 260.000000"
 preserveAspectRatio="xMidYMid meet">
<metadata>
Created by potrace 1.11, written by Peter Selinger 2001-2013
</metadata>
<g transform="translate(0.000000,260.000000) scale(0.100000,-0.100000)"
fill="#000000" stroke="none">
<path d="M109 2577 c-24 -13 -57 -43 -74 -66 l-30 -43 -3 -1157 -2 -1157 23
-45 c13 -24 43 -57 66 -74 l43 -30 214 -3 214 -3 0 550 0 551 788 2 787 3 3
313 2 312 -790 0 -790 0 0 435 0 435 -203 0 c-194 0 -206 -1 -248 -23z"/>
<path d="M1390 2285 l0 -315 210 0 210 0 0 315 0 315 -210 0 -210 0 0 -315z"/>
</g>
</svg>
